<svg alt="Telegram" class="tl_main_logo_title_image" height="72" viewBox="0 0 288 72" width="288" xmlns="http://www.w3.org/2000/svg" style=""><path d="m57.015 16.258c5.18 0 9.181 1.652 12.006 4.957 2.824 3.305 4.236 7.98 4.236 14.027v3.446h-24.855c.257 3.14 1.306 5.625 3.146 7.453s4.154 2.742 6.943 2.742c3.914 0 7.102-1.582 9.563-4.746l4.605 4.394c-1.523 2.274-3.556 4.037-6.099 5.291s-5.397 1.881-8.561 1.881c-5.414 0-9.803-1.705-13.166-5.115s-5.045-7.951-5.045-13.623v-1.055c0-3.797.733-7.189 2.198-10.178 1.464-2.988 3.521-5.314 6.169-6.978 2.649-1.664 5.602-2.496 8.86-2.496zm-15.827-12.445v7.171h-15.961v44.016h-8.825v-44.016h-15.82v-7.171zm15.792 19.3c-2.344 0-4.237.821-5.678 2.461-1.441 1.641-2.361 3.926-2.76 6.856h16.278v-.633c-.188-2.859-.95-5.022-2.286-6.486-1.336-1.465-3.187-2.198-5.554-2.198zm30.292 31.887h-8.543v-54h8.543zm24.051.703c-5.414 0-9.803-1.705-13.166-5.115-3.364-3.41-5.045-7.951-5.045-13.623v-1.055c0-3.797.732-7.189 2.197-10.178 1.465-2.988 3.521-5.314 6.17-6.978 2.648-1.664 5.601-2.496 8.859-2.496 5.18 0 9.182 1.652 12.006 4.957s4.236 7.98 4.236 14.027v3.446h-24.855c.258 3.14 1.307 5.625 3.146 7.453 1.84 1.828 4.155 2.742 6.944 2.742 3.914 0 7.101-1.582 9.562-4.746l4.606 4.394c-1.524 2.274-3.557 4.037-6.1 5.291s-5.396 1.881-8.56 1.881zm-1.02-32.59c-2.344 0-4.236.821-5.678 2.461-1.441 1.641-2.361 3.926-2.759 6.856h16.277v-.633c-.188-2.859-.949-5.022-2.285-6.486-1.336-1.465-3.188-2.198-5.555-2.198zm20.41 12.586c0-5.906 1.389-10.623 4.166-14.15 2.778-3.528 6.463-5.291 11.057-5.291 4.336 0 7.746 1.512 10.23 4.535l.387-3.832h7.699v36.879c0 4.992-1.552 8.93-4.658 11.812-3.105 2.883-7.295 4.325-12.568 4.325-2.789 0-5.514-.581-8.174-1.741s-4.682-2.677-6.065-4.552l4.043-5.133c2.625 3.117 5.86 4.676 9.704 4.676 2.836 0 5.074-.768 6.714-2.303 1.641-1.535 2.461-3.791 2.461-6.768v-2.566c-2.461 2.742-5.742 4.113-9.843 4.113-4.454 0-8.092-1.769-10.916-5.308-2.825-3.54-4.237-8.438-4.237-14.696zm8.508.739c0 3.82.779 6.826 2.338 9.017s3.721 3.287 6.486 3.287c3.446 0 6-1.476 7.664-4.429v-16.735c-1.617-2.883-4.148-4.324-7.593-4.324-2.813 0-4.998 1.113-6.557 3.34-1.559 2.226-2.338 5.508-2.338 9.844zm52.719-11.672c-1.125-.188-2.285-.282-3.481-.282-3.914 0-6.55 1.5-7.91 4.5v26.016h-8.543v-38.039h8.156l.211 4.254c2.063-3.305 4.922-4.957 8.579-4.957 1.218 0 2.226.164 3.023.492zm26.07 30.234c-.375-.727-.703-1.91-.984-3.551-2.719 2.836-6.047 4.254-9.985 4.254-3.82 0-6.937-1.09-9.351-3.269-2.414-2.18-3.621-4.875-3.621-8.086 0-4.055 1.506-7.166 4.517-9.334 3.012-2.168 7.319-3.252 12.92-3.252h5.239v-2.496c0-1.969-.551-3.545-1.653-4.729-1.101-1.183-2.777-1.775-5.027-1.775-1.945 0-3.539.486-4.781 1.459-1.243.972-1.864 2.209-1.864 3.709h-8.543c0-2.086.692-4.037 2.075-5.854 1.382-1.816 3.263-3.24 5.642-4.271 2.379-1.032 5.033-1.547 7.963-1.547 4.453 0 8.004 1.119 10.652 3.357 2.649 2.239 4.008 5.385 4.078 9.44v17.156c0 3.422.481 6.152 1.442 8.191v.598zm-9.387-6.152c1.688 0 3.276-.41 4.764-1.231 1.488-.82 2.608-1.922 3.358-3.304v-7.172h-4.606c-3.164 0-5.543.55-7.137 1.652-1.593 1.102-2.39 2.66-2.39 4.676 0 1.64.545 2.947 1.634 3.92 1.09.972 2.549 1.459 4.377 1.459zm32.645-31.887.246 3.973c2.672-3.118 6.328-4.676 10.969-4.676 5.086 0 8.566 1.945 10.441 5.836 2.766-3.891 6.656-5.836 11.672-5.836 4.195 0 7.318 1.16 9.369 3.48 2.051 2.321 3.1 5.742 3.147 10.266v24.996h-8.543v-24.75c0-2.414-.528-4.184-1.582-5.309-1.055-1.125-2.801-1.687-5.239-1.687-1.945 0-3.533.521-4.763 1.564-1.231 1.043-2.092 2.409-2.584 4.096l.035 26.086h-8.543v-25.031c-.117-4.477-2.402-6.715-6.856-6.715-3.421 0-5.847 1.394-7.277 4.184v27.562h-8.543v-38.039z" fill="#4d4d4d" style=""/></svg>